<?xml version="1.0" encoding="utf-8"?>
<!-- Generator: Adobe Illustrator 19.0.0, SVG Export Plug-In . SVG Version: 6.00 Build 0)  -->
<svg version="1.1" id="Layer_1" xmlns="http://www.w3.org/2000/svg" xmlns:xlink="http://www.w3.org/1999/xlink" x="0px" y="0px"
	 viewBox="0 0 400 400" style="enable-background:new 0 0 400 400;" xml:space="preserve">
<style type="text/css">
	.st0{fill:#4555A5;}
	.st1{fill:#727D84;}
	.st2{font-family:'.SFNSText-Regular';}
	.st3{font-size:22.4263px;}
</style>
<g id="XMLID_40_">
	<g id="XMLID_41_">
		<path id="XMLID_53_" class="st0" d="M133.1,203.4l12.1-12.1c-2.1-2.8-3.3-6.3-3.3-10c0-3.8,1.2-7.2,3.3-10l-24.1-24
			c-3.2,1.7-7.2,1.3-9.9-1.4c-1-1-1.7-2.3-2.1-3.6l-9.9,0c-0.4,1.3-1.1,2.5-2.1,3.5c-1.6,1.6-3.6,2.4-5.6,2.4
			c1.6,20.8,9,40,20.7,55.9c2.9-2.5,6.7-4,10.9-4C126.8,200,130.3,201.3,133.1,203.4z"/>
		<path id="XMLID_52_" class="st0" d="M197.6,240.6l0-9.9c-1.3-0.4-2.5-1.1-3.6-2.1c-2.7-2.7-3.2-6.8-1.4-9.9l-24-24
			c-2.8,2.1-6.3,3.3-10,3.3c-3.8,0-7.3-1.2-10.1-3.4l-12.1,12.1c2.1,2.8,3.3,6.3,3.3,10c0,4.2-1.5,8-4,10.9
			c15.9,11.7,35.1,19.1,55.9,20.7c0.1-2,0.9-4.1,2.4-5.6C195.1,241.7,196.3,241,197.6,240.6z"/>
		<path id="XMLID_51_" class="st0" d="M202.4,39v9.9c1.3,0.4,2.5,1.1,3.6,2.1c2.7,2.7,3.2,6.7,1.4,9.9l24,24
			c2.8-2.1,6.3-3.4,10.1-3.4c3.8,0,7.3,1.2,10.1,3.4l12.1-12.1c-2.1-2.8-3.4-6.3-3.4-10.1c0-4.2,1.5-8,4-10.9
			c-15.9-11.6-35.1-19.1-55.9-20.7c-0.1,2-0.9,4-2.4,5.6C204.9,37.9,203.7,38.6,202.4,39z"/>
		<path id="XMLID_50_" class="st0" d="M266.9,76.2l-12.1,12.1c2.1,2.8,3.4,6.3,3.4,10.1s-1.2,7.3-3.4,10.1l24.1,24
			c3.2-1.7,7.2-1.3,9.9,1.4c1,1,1.7,2.3,2.1,3.6h9.9c0.4-1.3,1.1-2.5,2.1-3.6c1.6-1.6,3.6-2.4,5.6-2.4c-1.6-20.8-9-40-20.7-55.9
			c-2.9,2.5-6.7,4-10.9,4C273.2,79.6,269.7,78.3,266.9,76.2z"/>
		<path id="XMLID_49_" class="st0" d="M136.4,72.9L148.5,85c2.8-2.1,6.3-3.4,10.1-3.4c3.8,0,7.2,1.2,10,3.3l24-24
			c-1.7-3.2-1.3-7.2,1.4-9.9c1-1,2.3-1.7,3.6-2.1V39c-1.3-0.4-2.5-1.1-3.6-2.1c-1.6-1.6-2.4-3.6-2.4-5.6c-20.8,1.6-40,9-55.9,20.7
			c2.5,2.9,4,6.7,4,10.9C139.8,66.6,138.5,70.1,136.4,72.9z"/>
		<path id="XMLID_48_" class="st0" d="M263.6,206.7l-12.1-12.1c-2.8,2.1-6.3,3.4-10.1,3.4c-3.8,0-7.2-1.2-10-3.3l-24,24.1
			c1.7,3.2,1.3,7.2-1.4,9.9c-1,1-2.3,1.7-3.6,2.1l0,9.9c1.3,0.4,2.5,1.1,3.6,2.1c1.6,1.6,2.4,3.6,2.4,5.6c20.8-1.6,40-9,55.9-20.7
			c-2.5-2.9-4-6.7-4-10.9C260.2,213,261.5,209.5,263.6,206.7z"/>
		<path id="XMLID_47_" class="st0" d="M99.2,137.5l9.9,0c0.4-1.3,1.1-2.5,2.1-3.6c2.7-2.7,6.8-3.2,9.9-1.4l24.1-24
			c-2.1-2.8-3.3-6.3-3.3-10c0-3.8,1.2-7.3,3.4-10.1l-12.1-12.1c-2.8,2.1-6.3,3.4-10,3.4c-4.2,0-8-1.5-10.9-4
			c-11.6,15.9-19.1,35.1-20.7,55.9c2,0.1,4,0.9,5.6,2.4C98.1,134.9,98.8,136.1,99.2,137.5z"/>
		<path id="XMLID_46_" class="st0" d="M226.1,174.6l-60.9-60.9c-0.1,0.1-0.3,0.1-0.4,0.2v51.8c6.2,2.5,10.5,8.5,10.5,15.6
			c0,3.8-1.2,7.3-3.4,10.1l24,24c2.5-1.4,5.5-1.4,8,0l24-24.1c-2.1-2.8-3.4-6.3-3.4-10.1C224.7,178.9,225.2,176.7,226.1,174.6z"/>
		<path id="XMLID_45_" class="st0" d="M224.7,98.4c0-3.8,1.2-7.3,3.4-10.1l-24-24c-2.5,1.4-5.5,1.4-8,0l-24,24
			c2.1,2.8,3.4,6.3,3.4,10.1c0,2.4-0.5,4.6-1.4,6.6l60.9,60.9c0.1-0.1,0.3-0.1,0.4-0.2v-51.8C229.1,111.5,224.7,105.4,224.7,98.4z"
			/>
		<path id="XMLID_44_" class="st0" d="M251.5,111.8c-1.2,0.9-2.5,1.6-3.8,2.2v51.8c1.4,0.6,2.7,1.3,3.8,2.2l24-24.1
			c-1.3-2.5-1.3-5.5,0-8L251.5,111.8z"/>
		<path id="XMLID_43_" class="st0" d="M124.5,135.8c1.4,2.5,1.4,5.5,0,8l24.1,24c1.2-0.9,2.5-1.6,3.8-2.2v-51.8
			c-1.4-0.6-2.7-1.3-3.8-2.2L124.5,135.8z"/>
		<path id="XMLID_42_" class="st0" d="M300.8,142.2h-9.9c-0.4,1.3-1.1,2.5-2.1,3.6c-2.7,2.7-6.8,3.2-10,1.4l-24,24
			c2.1,2.8,3.4,6.3,3.4,10.1c0,3.8-1.2,7.3-3.4,10.1l12.1,12.1c2.8-2.1,6.3-3.4,10.1-3.4c4.2,0,8,1.5,10.9,4
			c11.6-15.9,19.1-35.1,20.7-55.9c-2-0.1-4-0.9-5.6-2.4C301.9,144.7,301.2,143.5,300.8,142.2z"/>
	</g>
</g>
<g id="XMLID_24_">
	<path id="XMLID_38_" class="st0" d="M97.9,328.9c0,2.2-1.1,3.2-3.3,3.2c-1.1,0-1.9-0.4-2.6-1.2l-27.6-35.1v33.1
		c0,2.2-1.1,3.2-3.3,3.2c-2.2,0-3.2-1.1-3.2-3.2v-42.5c0-2.2,1.1-3.3,3.4-3.3c1.1,0,1.9,0.5,2.6,1.4l27.4,34.9v-33
		c0-2.2,1.1-3.3,3.3-3.3c2.2,0,3.2,1.1,3.2,3.3V328.9z"/>
	<path id="XMLID_35_" class="st0" d="M152.3,325.4c-4.6,4.9-10.5,7.3-17.6,7.3c-7.1,0-13-2.4-17.6-7.3c-4.4-4.7-6.7-10.6-6.7-17.5
		c0-6.9,2.2-12.8,6.7-17.5c4.6-4.9,10.5-7.3,17.6-7.3c7.1,0,13,2.4,17.6,7.3c4.4,4.7,6.7,10.6,6.7,17.5
		C159,314.9,156.7,320.7,152.3,325.4z M147.6,295c-3.2-3.7-7.5-5.6-12.9-5.6c-5.4,0-9.7,1.9-12.9,5.6c-3,3.5-4.5,7.8-4.5,13
		c0,5.2,1.5,9.5,4.5,13c3.2,3.7,7.5,5.6,12.9,5.6c5.4,0,9.7-1.9,12.9-5.6c3-3.5,4.5-7.8,4.5-13C152.1,302.8,150.6,298.5,147.6,295z"
		/>
	<path id="XMLID_33_" class="st0" d="M203.5,285.1c0.6-1.3,1.6-2,3-2c2.2,0,3.3,1.1,3.3,3.2c0,0.3-0.1,0.8-0.4,1.4l-18.2,42.4
		c-0.5,1.3-1.5,1.9-2.9,1.9c-1.4,0-2.4-0.6-2.9-1.9l-18.2-42.4c-0.2-0.7-0.4-1.1-0.4-1.4c0-2.2,1.1-3.2,3.3-3.2c1.5,0,2.5,0.7,3,2
		l15.2,36.6L203.5,285.1z"/>
	<path id="XMLID_30_" class="st0" d="M261.4,327.5c0.2,0.6,0.4,1,0.4,1.4c0,2.2-1.1,3.2-3.2,3.2c-1.5,0-2.5-0.7-3.1-2l-4.8-10.5H228
		l-4.8,10.5c-0.6,1.3-1.6,2-3.1,2c-2.2,0-3.2-1.1-3.2-3.2c0-0.4,0.1-0.9,0.4-1.4l19-42.3c0.6-1.3,1.6-2,3.1-2c1.5,0,2.5,0.7,3.1,2
		L261.4,327.5z M239.3,293.2l-8.8,20.4h17.5L239.3,293.2z"/>
	<path id="XMLID_28_" class="st0" d="M280.7,328.6c0,2.3-1.1,3.5-3.4,3.5c-2.3,0-3.5-1.2-3.5-3.5v-42c0-2.3,1.2-3.5,3.5-3.5
		c2.3,0,3.4,1.2,3.4,3.5V328.6z"/>
	<path id="XMLID_25_" class="st0" d="M335.4,325.4c-4.6,4.9-10.5,7.3-17.6,7.3c-7.1,0-13-2.4-17.6-7.3c-4.4-4.7-6.7-10.6-6.7-17.5
		c0-6.9,2.2-12.8,6.7-17.5c4.6-4.9,10.5-7.3,17.6-7.3c7.1,0,13,2.4,17.6,7.3c4.4,4.7,6.7,10.6,6.7,17.5
		C342.1,314.9,339.8,320.7,335.4,325.4z M330.7,295c-3.2-3.7-7.5-5.6-12.9-5.6c-5.4,0-9.7,1.9-12.9,5.6c-3,3.5-4.5,7.8-4.5,13
		c0,5.2,1.5,9.5,4.5,13c3.2,3.7,7.5,5.6,12.9,5.6c5.4,0,9.7-1.9,12.9-5.6c3-3.5,4.5-7.8,4.5-13C335.2,302.8,333.7,298.5,330.7,295z"
		/>
</g>
<text id="XMLID_1_" transform="matrix(1.0547 0 0 1 130.4067 368.0608)" class="st1 st2 st3">WORKPLACE</text>
</svg>
