<?xml version="1.0" encoding="utf-8"?>
<!-- Generator: Adobe Illustrator 19.0.0, SVG Export Plug-In . SVG Version: 6.00 Build 0)  -->
<svg version="1.1" id="Layer_1" xmlns="http://www.w3.org/2000/svg" xmlns:xlink="http://www.w3.org/1999/xlink" x="0px" y="0px"
	 viewBox="0 0 400 400" style="enable-background:new 0 0 400 400;" xml:space="preserve">
<style type="text/css">
	.st0{fill:#4555A5;}
</style>
<g id="XMLID_2_">
	<g id="XMLID_3_">
		<path id="XMLID_15_" class="st0" d="M106.1,288.3l16.9-16.9c-2.9-3.9-4.7-8.8-4.7-14c0-5.3,1.7-10.1,4.7-14l-33.6-33.6
			c-4.4,2.4-10.1,1.8-13.9-2c-1.4-1.4-2.4-3.2-3-5l-13.8,0c-0.5,1.8-1.5,3.5-2.9,5c-2.2,2.2-5,3.3-7.8,3.4
			c2.2,29.1,12.6,55.8,28.9,78.1c4.1-3.5,9.4-5.6,15.2-5.6C97.3,283.6,102.1,285.4,106.1,288.3z"/>
		<path id="XMLID_14_" class="st0" d="M196.2,340.3l0-13.8c-1.8-0.5-3.5-1.5-5-3c-3.8-3.8-4.4-9.4-2-13.9l-33.6-33.6
			c-3.9,2.9-8.8,4.7-14,4.7c-5.3,0-10.1-1.7-14-4.7L110.7,293c2.9,3.9,4.7,8.8,4.7,14c0,5.8-2.1,11.1-5.6,15.2
			c22.2,16.3,49,26.7,78.1,28.9c0.1-2.8,1.2-5.7,3.4-7.8C192.7,341.8,194.4,340.8,196.2,340.3z"/>
		<path id="XMLID_13_" class="st0" d="M202.8,58.8v13.8c1.8,0.5,3.5,1.5,5,2.9c3.8,3.8,4.4,9.4,2,13.9l33.6,33.6
			c3.9-2.9,8.8-4.7,14-4.7c5.3,0,10.1,1.7,14,4.7l16.9-16.9c-2.9-3.9-4.7-8.8-4.7-14c0-5.8,2.1-11.1,5.6-15.2
			c-22.2-16.3-49-26.7-78.1-28.9c-0.1,2.8-1.2,5.6-3.4,7.8C206.3,57.3,204.6,58.2,202.8,58.8z"/>
		<path id="XMLID_12_" class="st0" d="M292.9,110.8l-16.9,16.9c2.9,3.9,4.7,8.8,4.7,14s-1.7,10.1-4.7,14l33.6,33.6
			c4.4-2.4,10.1-1.8,13.9,2c1.4,1.4,2.4,3.1,2.9,5h13.8c0.5-1.8,1.5-3.5,3-5c2.2-2.2,5-3.3,7.8-3.4c-2.2-29.1-12.6-55.8-28.9-78
			c-4.1,3.5-9.4,5.6-15.2,5.6C301.7,115.5,296.8,113.7,292.9,110.8z"/>
		<path id="XMLID_11_" class="st0" d="M110.7,106.1l16.9,16.9c3.9-2.9,8.8-4.7,14-4.7c5.3,0,10.1,1.7,14,4.7l33.6-33.6
			c-2.4-4.4-1.8-10.1,2-13.9c1.4-1.4,3.2-2.4,5-3V58.8c-1.8-0.5-3.5-1.5-5-3c-2.2-2.2-3.3-5-3.4-7.8c-29.1,2.2-55.8,12.6-78,28.9
			c3.5,4.1,5.6,9.4,5.6,15.2C115.4,97.3,113.7,102.2,110.7,106.1z"/>
		<path id="XMLID_10_" class="st0" d="M288.3,293l-16.9-16.9c-3.9,2.9-8.8,4.7-14,4.7c-5.3,0-10.1-1.7-14-4.7l-33.6,33.6
			c2.4,4.4,1.8,10.1-2,13.9c-1.4,1.4-3.1,2.4-5,2.9l0,13.8c1.8,0.5,3.5,1.5,5,3c2.2,2.2,3.3,5,3.4,7.8c29.1-2.2,55.8-12.6,78.1-28.9
			c-3.5-4.1-5.6-9.4-5.6-15.2C283.6,301.7,285.3,296.9,288.3,293z"/>
		<path id="XMLID_9_" class="st0" d="M58.7,196.2l13.8,0c0.5-1.8,1.5-3.5,2.9-5c3.8-3.8,9.4-4.4,13.9-2l33.6-33.6
			c-2.9-3.9-4.7-8.8-4.7-14c0-5.3,1.7-10.1,4.7-14L106,110.8c-3.9,2.9-8.8,4.7-14,4.7c-5.8,0-11.1-2.1-15.2-5.6
			c-16.3,22.2-26.7,49-28.9,78c2.8,0.1,5.7,1.2,7.8,3.4C57.2,192.7,58.2,194.4,58.7,196.2z"/>
		<path id="XMLID_8_" class="st0" d="M235.9,248.2l-85-85c-0.2,0.1-0.4,0.2-0.6,0.2v72.3c8.6,3.4,14.7,11.9,14.7,21.7
			c0,5.3-1.7,10.1-4.7,14l33.6,33.6c3.5-1.9,7.7-1.9,11.2,0l33.6-33.6c-2.9-3.9-4.7-8.8-4.7-14C234,254.1,234.7,251,235.9,248.2z"/>
		<path id="XMLID_7_" class="st0" d="M234,141.7c0-5.3,1.7-10.1,4.7-14l-33.6-33.6c-3.5,1.9-7.7,1.9-11.2,0l-33.6,33.6
			c2.9,3.9,4.7,8.8,4.7,14c0,3.3-0.7,6.4-1.9,9.2l85,85c0.2-0.1,0.4-0.2,0.6-0.2v-72.3C240.1,160,234,151.5,234,141.7z"/>
		<path id="XMLID_6_" class="st0" d="M271.4,160.4c-1.6,1.2-3.4,2.2-5.4,3v72.3c1.9,0.8,3.7,1.8,5.4,3l33.6-33.6
			c-1.9-3.5-1.9-7.7,0-11.1L271.4,160.4z"/>
		<path id="XMLID_5_" class="st0" d="M94,194c1.9,3.5,1.9,7.7,0,11.2l33.6,33.6c1.6-1.2,3.4-2.2,5.4-3v-72.3c-1.9-0.8-3.7-1.8-5.4-3
			L94,194z"/>
		<path id="XMLID_4_" class="st0" d="M340.3,202.8h-13.8c-0.5,1.8-1.5,3.5-3,5c-3.8,3.8-9.5,4.4-13.9,2L276,243.4
			c2.9,3.9,4.7,8.8,4.7,14c0,5.3-1.7,10.1-4.7,14l16.9,16.9c3.9-2.9,8.8-4.7,14-4.7c5.8,0,11.1,2.1,15.2,5.6
			c16.3-22.2,26.7-49,28.9-78c-2.8-0.1-5.7-1.2-7.8-3.4C341.8,206.4,340.8,204.7,340.3,202.8z"/>
	</g>
</g>
</svg>
