<?xml version="1.0" encoding="utf-8"?>
<!-- Generator: Adobe Illustrator 19.0.0, SVG Export Plug-In . SVG Version: 6.00 Build 0)  -->
<svg version="1.1" id="Layer_1" xmlns="http://www.w3.org/2000/svg" xmlns:xlink="http://www.w3.org/1999/xlink" x="0px" y="0px"
	 viewBox="0 0 1000 700" style="enable-background:new 0 0 1000 700;" xml:space="preserve">
<style type="text/css">
	.st0{fill:#FDFDFE;}
	.st1{fill:#FFFFFF;}
</style>
<g id="XMLID_23_">
	<g id="XMLID_40_">
		<g id="XMLID_41_">
			<path id="XMLID_21_" class="st0" d="M154.3,352l8.7-8.7c-1.5-2-2.4-4.5-2.4-7.2c0-2.7,0.9-5.2,2.4-7.2l-17.3-17.3
				c-2.3,1.2-5.2,0.9-7.1-1c-0.7-0.7-1.2-1.6-1.5-2.6l-7.1,0c-0.3,0.9-0.8,1.8-1.5,2.6c-1.1,1.1-2.6,1.7-4,1.8
				c1.1,15,6.5,28.7,14.9,40.2c2.1-1.8,4.8-2.9,7.8-2.9C149.8,349.6,152.3,350.5,154.3,352z"/>
			<path id="XMLID_20_" class="st0" d="M200.7,378.8l0-7.1c-0.9-0.3-1.8-0.8-2.6-1.5c-1.9-1.9-2.3-4.9-1-7.1l-17.3-17.3
				c-2,1.5-4.5,2.4-7.2,2.4c-2.7,0-5.2-0.9-7.2-2.4l-8.7,8.7c1.5,2,2.4,4.5,2.4,7.2c0,3-1.1,5.7-2.9,7.8
				c11.4,8.4,25.2,13.7,40.2,14.9c0.1-1.5,0.6-2.9,1.8-4C198.9,379.6,199.8,379.1,200.7,378.8z"/>
			<path id="XMLID_19_" class="st0" d="M204.1,233.9v7.1c0.9,0.3,1.8,0.8,2.6,1.5c1.9,1.9,2.3,4.8,1,7.1L225,267
				c2-1.5,4.5-2.4,7.2-2.4c2.7,0,5.2,0.9,7.2,2.4l8.7-8.7c-1.5-2-2.4-4.5-2.4-7.2c0-3,1.1-5.7,2.9-7.8
				c-11.4-8.4-25.2-13.7-40.2-14.9c-0.1,1.5-0.6,2.9-1.8,4C205.9,233.1,205,233.6,204.1,233.9z"/>
			<path id="XMLID_18_" class="st0" d="M250.5,260.7l-8.7,8.7c1.5,2,2.4,4.5,2.4,7.2s-0.9,5.2-2.4,7.2l17.3,17.3
				c2.3-1.2,5.2-0.9,7.1,1c0.7,0.7,1.2,1.6,1.5,2.6h7.1c0.3-0.9,0.8-1.8,1.5-2.6c1.1-1.1,2.6-1.7,4-1.8c-1.1-15-6.5-28.7-14.9-40.2
				c-2.1,1.8-4.8,2.9-7.8,2.9C255,263.1,252.5,262.2,250.5,260.7z"/>
			<path id="XMLID_17_" class="st0" d="M156.7,258.3l8.7,8.7c2-1.5,4.5-2.4,7.2-2.4c2.7,0,5.2,0.9,7.2,2.4l17.3-17.3
				c-1.2-2.3-0.9-5.2,1-7.1c0.7-0.7,1.6-1.2,2.6-1.5v-7.1c-0.9-0.3-1.8-0.8-2.6-1.5c-1.1-1.1-1.7-2.6-1.8-4
				c-15,1.1-28.7,6.5-40.2,14.9c1.8,2.1,2.9,4.8,2.9,7.8C159.1,253.8,158.2,256.3,156.7,258.3z"/>
			<path id="XMLID_16_" class="st0" d="M248.1,354.4l-8.7-8.7c-2,1.5-4.5,2.4-7.2,2.4c-2.7,0-5.2-0.9-7.2-2.4L207.7,363
				c1.2,2.3,0.9,5.2-1,7.1c-0.7,0.7-1.6,1.2-2.6,1.5l0,7.1c0.9,0.3,1.8,0.8,2.6,1.5c1.1,1.1,1.7,2.6,1.8,4
				c15-1.1,28.7-6.5,40.2-14.9c-1.8-2.1-2.9-4.8-2.9-7.8C245.7,358.9,246.6,356.4,248.1,354.4z"/>
			<path id="XMLID_15_" class="st0" d="M130,304.7l7.1,0c0.3-0.9,0.8-1.8,1.5-2.6c1.9-1.9,4.9-2.3,7.1-1l17.3-17.3
				c-1.5-2-2.4-4.5-2.4-7.2c0-2.7,0.9-5.2,2.4-7.2l-8.7-8.7c-2,1.5-4.5,2.4-7.2,2.4c-3,0-5.7-1.1-7.8-2.9
				c-8.4,11.4-13.7,25.2-14.9,40.2c1.5,0.1,2.9,0.6,4,1.8C129.2,302.8,129.7,303.7,130,304.7z"/>
			<path id="XMLID_14_" class="st0" d="M221.1,331.4l-43.7-43.7c-0.1,0-0.2,0.1-0.3,0.1V325c4.4,1.8,7.6,6.1,7.6,11.2
				c0,2.7-0.9,5.2-2.4,7.2l17.3,17.3c1.8-1,4-1,5.8,0l17.3-17.3c-1.5-2-2.4-4.5-2.4-7.2C220.1,334.4,220.5,332.8,221.1,331.4z"/>
			<path id="XMLID_13_" class="st0" d="M220.1,276.6c0-2.7,0.9-5.2,2.4-7.2l-17.3-17.3c-1.8,1-4,1-5.8,0l-17.3,17.3
				c1.5,2,2.4,4.5,2.4,7.2c0,1.7-0.3,3.3-1,4.8l43.7,43.7c0.1,0,0.2-0.1,0.3-0.1v-37.2C223.3,286,220.1,281.6,220.1,276.6z"/>
			<path id="XMLID_12_" class="st0" d="M239.4,286.2c-0.8,0.6-1.8,1.2-2.8,1.6v37.2c1,0.4,1.9,0.9,2.8,1.5l17.3-17.3
				c-1-1.8-1-4,0-5.7L239.4,286.2z"/>
			<path id="XMLID_11_" class="st0" d="M148.1,303.5c1,1.8,1,4,0,5.8l17.3,17.3c0.8-0.6,1.8-1.2,2.8-1.6v-37.2
				c-1-0.4-1.9-0.9-2.8-1.6L148.1,303.5z"/>
			<path id="XMLID_10_" class="st0" d="M274.8,308.1h-7.1c-0.3,0.9-0.8,1.8-1.5,2.6c-1.9,1.9-4.9,2.3-7.2,1l-17.3,17.3
				c1.5,2,2.4,4.5,2.4,7.2c0,2.7-0.9,5.2-2.4,7.2l8.7,8.7c2-1.5,4.5-2.4,7.2-2.4c3,0,5.7,1.1,7.8,2.9c8.4-11.4,13.7-25.2,14.9-40.2
				c-1.5-0.1-2.9-0.6-4-1.8C275.6,309.9,275.1,309,274.8,308.1z"/>
		</g>
	</g>
	<g id="XMLID_24_">
		<path id="XMLID_38_" class="st1" d="M418.9,346.9c0,4.2-2.1,6.2-6.4,6.2c-2,0-3.7-0.8-5-2.3l-53.3-67.9v63.9
			c0,4.2-2.1,6.2-6.4,6.2c-4.2,0-6.2-2.1-6.2-6.2v-82.1c0-4.3,2.2-6.4,6.5-6.4c2.1,0,3.8,0.9,5,2.6l53.1,67.5v-63.8
			c0-4.3,2.1-6.4,6.4-6.4c4.2,0,6.2,2.1,6.2,6.4V346.9z"/>
		<path id="XMLID_35_" class="st1" d="M524.1,340.2c-8.9,9.5-20.3,14.2-34.1,14.2c-13.8,0-25.2-4.7-34.1-14.2
			c-8.6-9.1-12.9-20.4-12.9-33.8s4.3-24.7,12.9-33.8c8.9-9.5,20.3-14.2,34.1-14.2c13.8,0,25.2,4.7,34.1,14.2
			c8.6,9.1,12.9,20.4,12.9,33.8S532.7,331,524.1,340.2z M514.9,281.3c-6.2-7.2-14.5-10.8-24.9-10.8c-10.4,0-18.7,3.6-24.9,10.8
			c-5.8,6.7-8.7,15-8.7,25c0,10,2.9,18.3,8.7,25c6.2,7.2,14.5,10.8,24.9,10.8c10.4,0,18.7-3.6,24.9-10.8c5.8-6.7,8.8-15,8.8-25
			C523.7,296.4,520.7,288,514.9,281.3z"/>
		<path id="XMLID_33_" class="st1" d="M623.1,262.2c1.1-2.6,3-3.9,5.8-3.9c4.3,0,6.4,2.1,6.4,6.2c0,0.6-0.2,1.5-0.7,2.8l-35.2,82
			c-1,2.5-2.9,3.7-5.7,3.7c-2.8,0-4.7-1.2-5.7-3.7l-35.2-82c-0.5-1.3-0.7-2.2-0.7-2.8c0-4.2,2.1-6.2,6.4-6.2c2.9,0,4.8,1.3,5.8,3.9
			l29.3,70.7L623.1,262.2z"/>
		<path id="XMLID_30_" class="st1" d="M735.1,344.1c0.5,1.1,0.7,2,0.7,2.8c0,4.2-2.1,6.2-6.2,6.2c-2.9,0-4.8-1.3-6-3.9l-9.3-20.3
			h-43.7l-9.3,20.3c-1.1,2.6-3.1,3.9-6,3.9c-4.2,0-6.2-2.1-6.2-6.2c0-0.8,0.2-1.7,0.7-2.8l36.7-81.9c1.1-2.6,3.1-3.9,6-3.9
			c2.9,0,4.9,1.3,6,3.9L735.1,344.1z M692.4,277.8l-17,39.4h33.9L692.4,277.8z"/>
		<path id="XMLID_28_" class="st1" d="M772.3,346.3c0,4.5-2.2,6.8-6.6,6.8c-4.5,0-6.8-2.3-6.8-6.8v-81.2c0-4.5,2.3-6.8,6.8-6.8
			c4.4,0,6.6,2.3,6.6,6.8V346.3z"/>
		<path id="XMLID_25_" class="st1" d="M878.1,340.2c-8.9,9.5-20.3,14.2-34.1,14.2c-13.8,0-25.2-4.7-34.1-14.2
			c-8.6-9.1-12.9-20.4-12.9-33.8s4.3-24.7,12.9-33.8c8.9-9.5,20.3-14.2,34.1-14.2c13.8,0,25.2,4.7,34.1,14.2
			c8.6,9.1,12.9,20.4,12.9,33.8S886.7,331,878.1,340.2z M869,281.3c-6.2-7.2-14.5-10.8-24.9-10.8c-10.4,0-18.7,3.6-24.9,10.8
			c-5.8,6.7-8.7,15-8.7,25c0,10,2.9,18.3,8.7,25c6.2,7.2,14.5,10.8,24.9,10.8c10.4,0,18.7-3.6,24.9-10.8c5.8-6.7,8.8-15,8.8-25
			C877.7,296.4,874.8,288,869,281.3z"/>
	</g>
</g>
</svg>
