<?xml version="1.0" encoding="utf-8"?>
<!-- Generator: Adobe Illustrator 19.0.0, SVG Export Plug-In . SVG Version: 6.00 Build 0)  -->
<svg version="1.1" id="Layer_1" xmlns="http://www.w3.org/2000/svg" xmlns:xlink="http://www.w3.org/1999/xlink" x="0px" y="0px"
	 viewBox="0 0 2000 500" style="enable-background:new 0 0 2000 500;" xml:space="preserve">
<style type="text/css">
	.st0{fill:#FDFDFE;}
	.st1{fill:#FFFFFF;}
</style>
<g id="XMLID_23_">
	<g id="XMLID_40_">
		<g id="XMLID_41_">
			<path id="XMLID_21_" class="st0" d="M219.3,350.2l19.2-19.2c-3.3-4.4-5.3-10-5.3-15.9c0-6,2-11.5,5.3-15.9L200.3,261
				c-5,2.8-11.5,2-15.8-2.3c-1.6-1.6-2.7-3.6-3.4-5.6l-15.7,0c-0.6,2.1-1.7,4-3.3,5.6c-2.5,2.5-5.7,3.7-8.9,3.9
				c2.5,33,14.3,63.5,32.8,88.7c4.6-4,10.7-6.4,17.3-6.4C209.3,344.9,214.8,346.9,219.3,350.2z"/>
			<path id="XMLID_20_" class="st0" d="M321.7,409.3l0-15.7c-2.1-0.6-4-1.7-5.6-3.4c-4.3-4.3-5-10.7-2.3-15.8l-38.1-38.2
				c-4.4,3.3-10,5.3-15.9,5.3c-6,0-11.5-2-16-5.3l-19.2,19.2c3.3,4.4,5.3,10,5.3,15.9c0,6.6-2.4,12.6-6.4,17.3
				c25.2,18.5,55.7,30.3,88.7,32.8c0.1-3.2,1.4-6.4,3.9-8.9C317.7,411,319.6,409.9,321.7,409.3z"/>
			<path id="XMLID_19_" class="st0" d="M329.2,89.4v15.7c2.1,0.6,4,1.7,5.6,3.4c4.3,4.3,5,10.7,2.3,15.7l38.2,38.2
				c4.4-3.3,10-5.3,15.9-5.3c6,0,11.5,2,16,5.3l19.2-19.2c-3.3-4.4-5.3-10-5.3-16c0-6.6,2.4-12.6,6.4-17.3
				c-25.2-18.5-55.7-30.3-88.7-32.8c-0.1,3.2-1.4,6.4-3.9,8.9C333.2,87.7,331.2,88.8,329.2,89.4z"/>
			<path id="XMLID_18_" class="st0" d="M431.6,148.5l-19.2,19.2c3.3,4.4,5.3,10,5.3,15.9s-2,11.5-5.3,15.9l38.2,38.2
				c5-2.7,11.5-2,15.7,2.3c1.6,1.6,2.7,3.6,3.4,5.6h15.7c0.6-2.1,1.7-4,3.4-5.6c2.5-2.5,5.7-3.7,8.9-3.9
				c-2.5-33-14.3-63.5-32.8-88.7c-4.6,4-10.7,6.4-17.3,6.4C441.6,153.8,436.1,151.8,431.6,148.5z"/>
			<path id="XMLID_17_" class="st0" d="M224.6,143.2l19.2,19.2c4.4-3.3,10-5.3,16-5.3c6,0,11.5,2,15.9,5.3l38.1-38.2
				c-2.8-5-2-11.5,2.3-15.8c1.6-1.6,3.6-2.7,5.6-3.4V89.4c-2.1-0.6-4-1.7-5.6-3.4c-2.5-2.5-3.7-5.7-3.9-8.9
				c-33,2.5-63.5,14.3-88.7,32.8c4,4.6,6.4,10.7,6.4,17.3C229.9,133.2,227.9,138.7,224.6,143.2z"/>
			<path id="XMLID_16_" class="st0" d="M426.3,355.5l-19.2-19.2c-4.4,3.3-10,5.3-16,5.3c-6,0-11.5-2-15.9-5.3l-38.2,38.2
				c2.8,5,2,11.5-2.3,15.8c-1.6,1.6-3.6,2.7-5.6,3.4l0,15.7c2.1,0.6,4,1.7,5.6,3.4c2.5,2.5,3.7,5.7,3.9,8.9
				c33-2.5,63.5-14.3,88.7-32.8c-4-4.6-6.4-10.7-6.4-17.3C421,365.5,423,360,426.3,355.5z"/>
			<path id="XMLID_15_" class="st0" d="M165.5,245.6l15.7,0c0.6-2.1,1.7-4,3.4-5.6c4.3-4.3,10.7-5,15.8-2.3l38.2-38.2
				c-3.3-4.4-5.3-10-5.3-15.9c0-6,2-11.5,5.3-15.9l-19.2-19.2c-4.4,3.3-10,5.3-15.9,5.3c-6.6,0-12.6-2.4-17.3-6.4
				c-18.5,25.2-30.3,55.7-32.8,88.7c3.2,0.1,6.4,1.4,8.9,3.9C163.7,241.6,164.9,243.5,165.5,245.6z"/>
			<path id="XMLID_14_" class="st0" d="M366.8,304.6L270.2,208c-0.2,0.1-0.4,0.2-0.7,0.3v82.1c9.8,3.9,16.7,13.5,16.7,24.7
				c0,6-2,11.5-5.3,16l38.1,38.2c4-2.2,8.8-2.2,12.7,0l38.2-38.2c-3.3-4.4-5.3-10-5.3-16C364.6,311.4,365.4,307.8,366.8,304.6z"/>
			<path id="XMLID_13_" class="st0" d="M364.6,183.6c0-6,2-11.5,5.3-16l-38.2-38.2c-4,2.2-8.8,2.2-12.7,0l-38.2,38.2
				c3.3,4.4,5.3,10,5.3,16c0,3.7-0.8,7.3-2.2,10.5l96.6,96.6c0.2-0.1,0.4-0.2,0.7-0.3v-82.2C371.6,204.4,364.6,194.8,364.6,183.6z"
				/>
			<path id="XMLID_12_" class="st0" d="M407.1,204.8c-1.9,1.4-3.9,2.6-6.1,3.4v82.2c2.2,0.9,4.2,2,6.1,3.4l38.1-38.2
				c-2.1-3.9-2.1-8.7,0-12.7L407.1,204.8z"/>
			<path id="XMLID_11_" class="st0" d="M205.6,243c2.2,4,2.2,8.8,0,12.7l38.2,38.2c1.9-1.4,3.9-2.6,6.1-3.4v-82.2
				c-2.2-0.9-4.2-2-6.1-3.4L205.6,243z"/>
			<path id="XMLID_10_" class="st0" d="M485.4,253.1h-15.7c-0.6,2.1-1.7,4-3.4,5.7c-4.3,4.3-10.8,5-15.8,2.2l-38.1,38.2
				c3.3,4.4,5.3,10,5.3,16c0,6-2,11.5-5.3,15.9l19.2,19.2c4.4-3.3,10-5.3,15.9-5.3c6.6,0,12.6,2.4,17.3,6.4
				c18.5-25.2,30.3-55.7,32.8-88.7c-3.2-0.1-6.4-1.4-8.9-3.9C487.1,257.1,486,255.2,485.4,253.1z"/>
		</g>
	</g>
	<g id="XMLID_24_">
		<path id="XMLID_38_" class="st1" d="M803.5,338.8c0,9.2-4.7,13.8-14.2,13.8c-4.5,0-8.1-1.7-10.9-5.1L660.7,197.6v141.2
			c0,9.2-4.7,13.8-14.1,13.8c-9.2,0-13.8-4.6-13.8-13.8V157.5c0-9.4,4.8-14.1,14.4-14.1c4.6,0,8.3,1.9,11.1,5.8l117.2,149.1V157.5
			c0-9.4,4.7-14.1,14.2-14.1c9.2,0,13.8,4.7,13.8,14.1V338.8z"/>
		<path id="XMLID_35_" class="st1" d="M1035.8,324c-19.7,20.9-44.8,31.3-75.2,31.3c-30.5,0-55.6-10.4-75.2-31.3
			c-19-20.2-28.5-45.1-28.5-74.6s9.5-54.5,28.5-74.6c19.7-20.9,44.8-31.3,75.2-31.3c30.5,0,55.6,10.4,75.2,31.3
			c19,20.2,28.5,45.1,28.5,74.6S1054.8,303.8,1035.8,324z M1015.6,194c-13.8-15.9-32.1-23.8-55-23.8c-22.9,0-41.2,7.9-55,23.8
			c-12.8,14.8-19.2,33.2-19.2,55.3s6.4,40.5,19.2,55.3c13.8,15.9,32.1,23.8,55,23.8c22.9,0,41.2-7.9,55-23.8
			c12.9-14.8,19.3-33.2,19.3-55.3S1028.5,208.8,1015.6,194z"/>
		<path id="XMLID_33_" class="st1" d="M1254.6,151.9c2.4-5.7,6.7-8.5,12.9-8.5c9.5,0,14.2,4.6,14.2,13.8c0,1.3-0.6,3.3-1.6,6.1
			l-77.6,181.1c-2.2,5.5-6.4,8.2-12.6,8.2c-6.1,0-10.3-2.7-12.6-8.2l-77.6-181.1c-1-2.8-1.5-4.8-1.5-6.1c0-9.2,4.7-13.8,14.1-13.8
			c6.3,0,10.6,2.8,12.9,8.5l64.8,156.2L1254.6,151.9z"/>
		<path id="XMLID_30_" class="st1" d="M1501.8,332.7c1,2.4,1.5,4.4,1.5,6.1c0,9.2-4.6,13.8-13.8,13.8c-6.3,0-10.7-2.8-13.2-8.5
			l-20.5-44.8h-96.5l-20.5,44.8c-2.5,5.7-6.9,8.5-13.2,8.5c-9.2,0-13.8-4.6-13.8-13.8c0-1.7,0.5-3.7,1.5-6.1l81.1-180.8
			c2.4-5.7,6.8-8.5,13.2-8.5c6.4,0,10.8,2.8,13.2,8.5L1501.8,332.7z M1407.5,186.2l-37.5,86.9h74.9L1407.5,186.2z"/>
		<path id="XMLID_28_" class="st1" d="M1584,337.6c0,10-4.8,15-14.5,15c-10,0-15-5-15-15V158.4c0-10,5-15,15-15
			c9.7,0,14.5,5,14.5,15V337.6z"/>
		<path id="XMLID_25_" class="st1" d="M1817.7,324c-19.7,20.9-44.8,31.3-75.2,31.3c-30.5,0-55.6-10.4-75.2-31.3
			c-19-20.2-28.5-45.1-28.5-74.6s9.5-54.5,28.5-74.6c19.7-20.9,44.8-31.3,75.2-31.3c30.5,0,55.6,10.4,75.2,31.3
			c19,20.2,28.5,45.1,28.5,74.6S1836.7,303.8,1817.7,324z M1797.5,194c-13.8-15.9-32.1-23.8-55-23.8c-22.9,0-41.2,7.9-55,23.8
			c-12.8,14.8-19.2,33.2-19.2,55.3s6.4,40.5,19.2,55.3c13.8,15.9,32.1,23.8,55,23.8c22.9,0,41.2-7.9,55-23.8
			c12.9-14.8,19.3-33.2,19.3-55.3S1810.4,208.8,1797.5,194z"/>
	</g>
</g>
</svg>
