<?xml version="1.0" encoding="utf-8"?>
<!-- Generator: Adobe Illustrator 19.0.0, SVG Export Plug-In . SVG Version: 6.00 Build 0)  -->
<svg version="1.1" id="Layer_1" xmlns="http://www.w3.org/2000/svg" xmlns:xlink="http://www.w3.org/1999/xlink" x="0px" y="0px"
	 viewBox="0 0 400 160" style="enable-background:new 0 0 400 160;" xml:space="preserve">
<style type="text/css">
	.st0{fill:#4555A5;}
	.st1{fill:#727D84;}
	.st2{font-family:'TamilSangamMN';}
	.st3{font-size:46.5421px;}
	.st4{font-family:'MyriadPro-Regular';}
</style>
<g id="XMLID_4_">
	<path id="XMLID_18_" class="st0" d="M79.5,137.6c0,2.5-1.3,3.8-3.9,3.8c-1.2,0-2.2-0.5-3-1.4L40.3,98.8v38.8c0,2.5-1.3,3.8-3.9,3.8
		c-2.5,0-3.8-1.3-3.8-3.8V87.8c0-2.6,1.3-3.9,4-3.9c1.3,0,2.3,0.5,3,1.6l32.2,41V87.8c0-2.6,1.3-3.9,3.9-3.9c2.5,0,3.8,1.3,3.8,3.9
		V137.6z"/>
	<path id="XMLID_15_" class="st0" d="M143.3,133.5c-5.4,5.7-12.3,8.6-20.7,8.6c-8.4,0-15.3-2.9-20.7-8.6c-5.2-5.5-7.8-12.4-7.8-20.5
		s2.6-15,7.8-20.5c5.4-5.7,12.3-8.6,20.7-8.6c8.4,0,15.3,2.9,20.7,8.6c5.2,5.5,7.8,12.4,7.8,20.5S148.5,128,143.3,133.5z
		 M137.7,97.8c-3.8-4.4-8.8-6.5-15.1-6.5c-6.3,0-11.3,2.2-15.1,6.5c-3.5,4.1-5.3,9.1-5.3,15.2c0,6.1,1.8,11.1,5.3,15.2
		c3.8,4.4,8.8,6.5,15.1,6.5c6.3,0,11.3-2.2,15.1-6.5c3.5-4.1,5.3-9.1,5.3-15.2C143.1,106.9,141.3,101.9,137.7,97.8z"/>
	<path id="XMLID_13_" class="st0" d="M203.4,86.2c0.7-1.6,1.8-2.3,3.5-2.3c2.6,0,3.9,1.3,3.9,3.8c0,0.4-0.2,0.9-0.5,1.7l-21.3,49.7
		c-0.6,1.5-1.8,2.3-3.5,2.3c-1.7,0-2.8-0.8-3.5-2.3l-21.3-49.7c-0.3-0.8-0.4-1.3-0.4-1.7c0-2.5,1.3-3.8,3.9-3.8
		c1.7,0,2.9,0.8,3.5,2.3l17.8,42.9L203.4,86.2z"/>
	<path id="XMLID_10_" class="st0" d="M271.3,135.9c0.3,0.7,0.4,1.2,0.4,1.7c0,2.5-1.3,3.8-3.8,3.8c-1.7,0-2.9-0.8-3.6-2.3l-5.6-12.3
		h-26.5l-5.6,12.3c-0.7,1.6-1.9,2.3-3.6,2.3c-2.5,0-3.8-1.3-3.8-3.8c0-0.5,0.1-1,0.4-1.7l22.3-49.7c0.7-1.6,1.9-2.3,3.6-2.3
		c1.8,0,3,0.8,3.6,2.3L271.3,135.9z M245.4,95.7l-10.3,23.9h20.6L245.4,95.7z"/>
	<path id="XMLID_8_" class="st0" d="M293.9,137.3c0,2.7-1.3,4.1-4,4.1c-2.7,0-4.1-1.4-4.1-4.1V88c0-2.7,1.4-4.1,4.1-4.1
		c2.7,0,4,1.4,4,4.1V137.3z"/>
	<path id="XMLID_5_" class="st0" d="M358.1,133.5c-5.4,5.7-12.3,8.6-20.7,8.6c-8.4,0-15.3-2.9-20.7-8.6c-5.2-5.5-7.8-12.4-7.8-20.5
		s2.6-15,7.8-20.5c5.4-5.7,12.3-8.6,20.7-8.6c8.4,0,15.3,2.9,20.7,8.6c5.2,5.5,7.8,12.4,7.8,20.5S363.3,128,358.1,133.5z
		 M352.5,97.8c-3.8-4.4-8.8-6.5-15.1-6.5c-6.3,0-11.3,2.2-15.1,6.5c-3.5,4.1-5.3,9.1-5.3,15.2c0,6.1,1.8,11.1,5.3,15.2
		c3.8,4.4,8.8,6.5,15.1,6.5c6.3,0,11.3-2.2,15.1-6.5c3.5-4.1,5.3-9.1,5.3-15.2C357.8,106.9,356,101.9,352.5,97.8z"/>
</g>
<text id="XMLID_1_" transform="matrix(1.0506 0 0 1 32.6226 59.8316)"><tspan x="0" y="0" class="st1 st2 st3">Workplace </tspan><tspan x="220.2" y="0" class="st1 st4 st3">by</tspan></text>
</svg>
