<?xml version="1.0" encoding="utf-8"?>
<!-- Generator: Adobe Illustrator 19.0.0, SVG Export Plug-In . SVG Version: 6.00 Build 0)  -->
<svg version="1.1" id="Layer_1" xmlns="http://www.w3.org/2000/svg" xmlns:xlink="http://www.w3.org/1999/xlink" x="0px" y="0px"
	 viewBox="-149 -450 1700 1400" enable-background="new -149 -450 1700 1400" xml:space="preserve">
<g>
	<path fill="#8FE8EF" d="M260.2-11.5c10.8,0,19.7-8.7,19.9-19.5c0.2-11.1-9.2-20.2-20.4-20.2H125c-11,0-19.9,8.9-19.9,19.9l0,0
		c0,11,8.9,19.9,19.9,19.9h135.2V-11.5z"/>
	<path fill="#8FE8EF" d="M911.6,76.6c-0.2-11.1,9.2-20.2,20.4-20.2h137.5H1182h112.3c9.7,0,18.1-7.1,19.6-16.7
		c0-0.2,0.1-0.3,0.1-0.5c1.7-11.9-7.6-22.5-19.7-22.5H1182h-112.6h-26.8c-11.1,0-20.6-9.1-20.4-20.2c0.2-10.8,9-19.5,19.9-19.5h44
		h87.1c11.1,0,20.6-9.1,20.4-20.2c-0.2-10.8-9-19.5-19.9-19.5h-87.1c-11.1,0-20.6-9.1-20.4-20.2c0.2-10.8,9-19.5,19.9-19.5h136.1
		c-129.9-140-315.3-227.5-521.2-227.5c-170.2,0-326.3,59.8-448.7,159.5h153c11.1,0,20.6,9.1,20.4,20.2c-0.2,10.8-9,19.5-19.9,19.5
		h-120c-11.1,0-20.6,9.1-20.4,20.2c0.2,10.8,9,19.5,19.9,19.5h1.5h78.6c11.1,0,20.6,9.1,20.4,20.2c-0.2,10.8-9,19.5-19.9,19.5H326
		c-11.1,0-20.6,9.1-20.4,20.2c0.2,10.8,9,19.5,19.9,19.5h103.1c11.1,0,20.6,9.1,20.4,20.2c-0.2,10.8-9,19.5-19.9,19.5H83.7
		C67.1,57,52.5,87.3,40.1,118.6h68.4c11.1,0,20.6,9.1,20.4,20.2c-0.2,10.8-9,19.5-19.9,19.5H25.7c-4.2,12.6-8,25.4-11.4,38.4
		c2.2,0.9,4.7,1.4,7.2,1.4H109h43.4c11.1,0,20.6,9.1,20.4,20.2c-0.2,10.8-9,19.5-19.9,19.5h-27.4H13H4.5c-2.7,13.1-5,26.4-6.9,39.7
		H13h112.6H263c11.1,0,20.6,9.1,20.4,20.2c-0.2,10.8-9,19.5-19.9,19.5H-7.1c-1.9,21-2.8,42.2-2.8,63.7c0,118.5,29,230.2,80.3,328.5
		h1261.2c51.3-98.3,80.3-210,80.3-328.5c0-101.3-21.2-197.7-59.4-284.9H931.4C920.6,96.1,911.8,87.4,911.6,76.6z"/>
</g>
<g>
	<path fill="#FFFFFF" d="M1213.8,57l-0.9-0.1c-23.5-2.8-44.8,13.9-47.7,37.4l-18.8,155.4c-2.8,23.5-24.2,40.2-47.7,37.4l-3.5-0.4
		l168.3,20.4c23.5,2.8,44.8-13.9,47.7-37.4l18.8-155.4c2.8-23.5,24.2-40.2,47.7-37.4l0,0L1213.8,57z"/>
	<g>
		<path fill="#215E93" d="M850.3,313.4c-17.9,0-32.5,14.6-32.5,32.5V584h-3.5H775h-44.6H722h-51.5h-74.9v65H691h65.5h19.9H835h15.4
			c17.9,0,32.5-14.6,32.5-32.5V345.9C882.8,328,868.3,313.4,850.3,313.4z"/>
		<circle fill="#FBB47F" cx="570" cy="624.8" r="58.4"/>
	</g>
	<path fill="#215E93" d="M951.2,238.3h-52.7c-5.9,0-10.6,4.8-10.6,10.6V264h74v-15C961.8,243.1,957,238.3,951.2,238.3z"/>
	<path fill="#F05B44" d="M1116.7,365.4H896.2V649H1177V425.8C1177,392.5,1150,365.4,1116.7,365.4z"/>
	<path fill="#2471B5" d="M813.9,648.6h203.5V264H877.3c-35.1,0-63.5,28.4-63.5,63.5v321.1H813.9z"/>
	<g>
		<path fill="#FBB47F" d="M990.4,226.1c1.4,0,2.8,0,4.1-0.1v38h-70.1v-59.6C942.8,218.1,965.7,226.1,990.4,226.1L990.4,226.1z"/>
		<path fill="#F48242" d="M994.5,88.5V226c-1.4,0.1-2.7,0.1-4.1,0.1l0,0c-24.7,0-47.6-8.1-66-21.8V88.5H994.5z"/>
	</g>
	<path fill="#2471B5" d="M1079,648.6H955.8v-323c0-34,27.6-61.6,61.6-61.6l0,0c34,0,61.6,27.6,61.6,61.6V648.6z"/>
	<path fill="#FFFFFF" d="M541.8,598.8L541.8,598.8c-27.5,0-49.9,22.3-49.9,49.9v2h99.8v-2C591.6,621.2,569.3,598.8,541.8,598.8z"/>
	<g>
		<path fill="#8E5122" d="M1057,53.3L1057,53.3c29,0,52.4-23.5,52.4-52.4v-8.8c0-29-23.5-52.4-52.4-52.4l0,0V53.3z"/>
		<path fill="#9C5B25" d="M847.6,53.3H896v86.1l0,0c-26.7,0-48.4-21.7-48.4-48.4V53.3z"/>
		<path fill="#FBB47F" d="M990.4,201.1L990.4,201.1c61.3,0,111-49.7,111-111v-70c0-61.3-49.7-111-111-111l0,0
			c-61.3,0-111,49.7-111,111v70C879.4,151.4,929.1,201.1,990.4,201.1z"/>
		<path fill="#594A42" d="M1066.7,19.1L1066.7,19.1c12.7-4.7,26.4-4.2,38.7,1.4c3.5,1.6,5,5.7,3.4,9.2c-0.8,1.7-2.2,3-3.9,3.6
			c-1.7,0.6-3.6,0.6-5.3-0.2c-8.9-4.1-18.9-4.5-28.1-1c-3.6,1.3-7.6-0.5-8.9-4.1C1061.2,24.4,1063.1,20.5,1066.7,19.1z"/>
		<path fill="#594A42" d="M979.7,19.1L979.7,19.1c12.7-4.7,26.4-4.2,38.7,1.4c3.5,1.6,5,5.7,3.4,9.2c-0.8,1.7-2.2,3-3.9,3.6
			c-1.7,0.6-3.6,0.6-5.3-0.2c-8.9-4.1-18.9-4.5-28.1-1c-3.6,1.3-7.6-0.5-8.9-4.1C974.2,24.4,976.1,20.5,979.7,19.1z"/>
		<path fill="#F48242" d="M1064.6,114.4c-2.5,5.1-7.7,8.6-13.8,8.6c-6.1,0-11.3-3.5-13.8-8.6H1064.6z"/>
		<path fill="#FFFFFF" d="M1011.3,182.4c-23.7,0-43-19.3-43-43h86C1054.3,163.2,1035,182.4,1011.3,182.4z"/>
		<circle fill="#594A42" cx="1088.6" cy="50.7" r="8.3"/>
		<circle fill="#594A42" cx="1003" cy="50.7" r="8.3"/>
		<path fill="#9C5B25" d="M937-123h206.8l0,0c0,49.3-40,89.3-89.3,89.3h-98.8V16c0,20.6-16.7,37.3-37.3,37.3V102
			c0,6.9-5.6,12.5-12.5,12.5h-17V53.4h-41.3v-87l0,0C847.6-83,887.6-123,937-123z"/>
		<g>
			<g>
				<path fill="#D1D3D4" d="M944.2,165.6h21.5v-8h-21.5c-40.4,0-73.3-32.9-73.3-73.3h-8C862.9,129.1,899.4,165.6,944.2,165.6z"/>
			</g>
			<circle fill="#58595B" cx="965.8" cy="161.6" r="14.5"/>
			<g>
				<path fill="#58595B" d="M855.6,84.3c0-9.6,4.4-18.2,11.3-23.9v-7h19.7c17.1,0,31,13.9,31,31c0,17.1-13.9,31-31,31h-19.7v-7
					C860,102.5,855.6,93.9,855.6,84.3z"/>
				<circle fill="#6D6E71" cx="866.9" cy="84.3" r="31"/>
				<path fill="#58595B" d="M866.9,98.7c8,0,14.5-6.5,14.5-14.5s-6.5-14.5-14.5-14.5s-14.5,6.5-14.5,14.5S858.9,98.7,866.9,98.7z"/>
			</g>
		</g>
	</g>
	<path fill="#215E93" d="M1011.8,238.3H959c-5.9,0-10.6,4.8-10.6,10.6V264h74v-15C1022.4,243.1,1017.6,238.3,1011.8,238.3z"/>
	<circle fill="#FFFFFF" cx="897.9" cy="286.6" r="7.6"/>
	<circle fill="#FFFFFF" cx="897.9" cy="373" r="7.6"/>
	<circle fill="#FFFFFF" cx="897.9" cy="459.5" r="7.6"/>
	<circle fill="#FFFFFF" cx="897.9" cy="545.9" r="7.6"/>
	<polygon fill="#215E93" points="1012.8,338.1 1079,609.3 1079,347 	"/>
	<g>
		<path fill="#377FC2" d="M1263.5,350.4c-10.8-3.5-20.6-9.6-28.6-17.6l-68.7,166.1l-93.5-185.5c-8.1-16-27.6-22.5-43.7-14.4l0,0
			c-16,8.1-22.5,27.6-14.4,43.7L1140,591.5c5.5,11,16.8,17.9,29,17.9c0.4,0,0.8,0,1.2,0c12.7-0.5,24-8.3,28.8-20.1l97.8-236.5
			C1285.8,354.6,1274.2,353.8,1263.5,350.4z"/>
		<path fill="#FBB47F" d="M1257.1,279l-22.2,53.8c8,8,17.8,14.1,28.6,17.6c10.8,3.5,22.3,4.3,33.5,2.4l20.2-48.9L1257.1,279z"/>
	</g>
	<circle fill="#FBB47F" cx="1276" cy="273.8" r="58.4"/>
</g>
<path fill="#F1F2F2" d="M783.8,29.4l-83.5-105c19.2-29.2,30.4-64.1,30.4-101.7c0-102.2-82.8-185-185-185s-185,82.8-185,185
	s82.8,185,185,185c26,0,50.7-5.4,73.1-15L783.8,29.4z"/>
<g>
	<rect x="224.2" y="629.4" fill="#9D8483" width="287" height="19.2"/>
	<path fill="#9D8483" d="M374.9,382.4h-85.3c-17,0-30.9,13.8-30.9,30.9v235.3h147V413.3C405.7,396.3,391.9,382.4,374.9,382.4z"/>
	<path fill="#FFFFFF" d="M612.5,542.1H354c-21.1,0-38.2-17.1-38.2-38.2V106.4c0-21.1,17.1-38.2,38.2-38.2h258.6
		c21.1,0,38.2,17.1,38.2,38.2V504C650.8,525,633.6,542.1,612.5,542.1z"/>
	<path fill="#EDEDED" d="M569,542.1H95.5c-21.1,0-38.2-17.1-38.2-38.2V106.4c0-21.1,17.1-38.2,38.2-38.2H569
		c21.1,0,38.2,17.1,38.2,38.2V504C607.2,525,590.1,542.1,569,542.1z"/>
	<path fill="#BDABAA" d="M348.4,382.4h-85.3c-17,0-30.9,13.8-30.9,30.9v235.3h147V413.3C379.3,396.3,365.4,382.4,348.4,382.4z"/>
	<rect x="162.2" y="629.4" fill="#AE9493" width="287" height="19.2"/>
	<path fill="#BDABAA" d="M530.6,477.4h-66.7c-3.7,0-6.7-3-6.7-6.7l0,0c0-3.7,3-6.7,6.7-6.7h66.7c3.7,0,6.7,3,6.7,6.7l0,0
		C537.2,474.4,534.3,477.4,530.6,477.4z"/>
	<path fill="#BDABAA" d="M530.6,500.8h-66.7c-3.7,0-6.7-3-6.7-6.7l0,0c0-3.7,3-6.7,6.7-6.7h66.7c3.7,0,6.7,3,6.7,6.7l0,0
		C537.2,497.8,534.3,500.8,530.6,500.8z"/>
</g>
<circle fill="#FFFFFF" cx="305.8" cy="226.1" r="55.7"/>
<g>
	<path fill="#BDABAA" d="M647.5-243.8H428.2c-4.8,0-8.8,3.9-8.8,8.8c0,4.8,3.9,8.8,8.8,8.8h219.3c4.8,0,8.8-3.9,8.8-8.8
		C656.3-239.9,652.3-243.8,647.5-243.8z"/>
	<path fill="#BDABAA" d="M620-208H455.7c-4.8,0-8.8,3.9-8.8,8.8c0,4.8,3.9,8.8,8.8,8.8H620c4.8,0,8.8-3.9,8.8-8.8
		C628.7-204,624.8-208,620-208z"/>
	<path fill="#BDABAA" d="M591.3-115H474.7c-4.8,0-8.8,3.9-8.8,8.8c0,4.8,3.9,8.8,8.8,8.8h116.5c4.8,0,8.8-3.9,8.8-8.8
		S596.1-115,591.3-115z"/>
	<path fill="#BDABAA" d="M548.4-154.7h-94.8c-4.8,0-8.8,3.9-8.8,8.8c0,4.8,3.9,8.8,8.8,8.8h94.8c4.8,0,8.8-3.9,8.8-8.8
		C557.1-150.8,553.2-154.7,548.4-154.7z"/>
	<path fill="#BDABAA" d="M622.1-154.7h-27.6c-4.8,0-8.8,3.9-8.8,8.8c0,4.8,3.9,8.8,8.8,8.8h27.6c4.8,0,8.8-3.9,8.8-8.8
		C630.9-150.8,627-154.7,622.1-154.7z"/>
</g>
<circle fill="#FFFFFF" cx="960.8" cy="632.4" r="7.6"/>
</svg>
