<?xml version="1.0" encoding="utf-8"?>
<!-- Generator: Adobe Illustrator 19.0.0, SVG Export Plug-In . SVG Version: 6.00 Build 0)  -->
<svg version="1.1" id="Layer_1" xmlns="http://www.w3.org/2000/svg" xmlns:xlink="http://www.w3.org/1999/xlink" x="0px" y="0px"
	 viewBox="0 0 500 500" style="enable-background:new 0 0 500 500;" xml:space="preserve">
<style type="text/css">
	.st0{fill:#FDFDFE;}
</style>
<g id="XMLID_14_">
	<path id="XMLID_12_" class="st0" d="M149.9,344l18-18c-3.1-4.2-5-9.4-5-15c0-5.6,1.9-10.8,5-15L132,260.2
		c-4.7,2.6-10.8,1.9-14.8-2.1c-1.5-1.5-2.6-3.4-3.1-5.3l-14.7,0c-0.6,1.9-1.6,3.8-3.1,5.3c-2.3,2.3-5.3,3.5-8.4,3.6
		c2.4,31,13.4,59.6,30.8,83.3c4.4-3.7,10-6,16.2-6C140.5,339,145.7,340.9,149.9,344z"/>
	<path id="XMLID_11_" class="st0" d="M246.1,399.5l0-14.7c-1.9-0.6-3.8-1.6-5.3-3.1c-4-4-4.7-10.1-2.1-14.8L202.8,331
		c-4.2,3.1-9.4,5-15,5c-5.6,0-10.8-1.9-15-5l-18,18c3.1,4.2,5,9.4,5,15c0,6.2-2.3,11.9-6,16.2c23.7,17.4,52.3,28.5,83.3,30.8
		c0.1-3,1.3-6,3.6-8.4C242.3,401.1,244.2,400.1,246.1,399.5z"/>
	<path id="XMLID_10_" class="st0" d="M253.1,99v14.8c1.9,0.6,3.8,1.6,5.3,3.1c4,4,4.7,10.1,2.1,14.8l35.8,35.8c4.2-3.1,9.4-5,15-5
		c5.6,0,10.8,1.9,15,5l18-18c-3.1-4.2-5-9.4-5-15c0-6.2,2.3-11.9,6-16.2c-23.7-17.4-52.3-28.5-83.3-30.8c-0.1,3-1.3,6-3.6,8.3
		C256.9,97.4,255.1,98.4,253.1,99z"/>
	<path id="XMLID_9_" class="st0" d="M349.4,154.5l-18,18c3.1,4.2,5,9.4,5,15c0,5.6-1.9,10.8-5,15l35.9,35.8
		c4.7-2.6,10.8-1.9,14.8,2.1c1.5,1.5,2.6,3.4,3.1,5.3h14.7c0.6-1.9,1.6-3.8,3.1-5.3c2.3-2.3,5.3-3.5,8.4-3.6
		c-2.4-31-13.4-59.6-30.8-83.3c-4.4,3.7-10,6-16.2,6C358.7,159.5,353.5,157.6,349.4,154.5z"/>
	<path id="XMLID_8_" class="st0" d="M154.9,149.5l18,18c4.2-3.1,9.4-5,15-5c5.6,0,10.8,1.9,15,5l35.8-35.8
		c-2.6-4.7-1.9-10.8,2.1-14.8c1.5-1.5,3.4-2.6,5.3-3.1V99c-1.9-0.6-3.8-1.6-5.3-3.2c-2.3-2.3-3.5-5.3-3.6-8.3
		c-31,2.4-59.6,13.4-83.3,30.8c3.7,4.4,6,10,6,16.2C159.9,140.2,158,145.4,154.9,149.5z"/>
	<path id="XMLID_7_" class="st0" d="M344.4,349l-18-18c-4.2,3.1-9.4,5-15,5c-5.6,0-10.8-1.9-15-5l-35.8,35.9
		c2.6,4.7,1.9,10.8-2.1,14.8c-1.5,1.5-3.4,2.6-5.3,3.1l0,14.7c1.9,0.6,3.8,1.6,5.3,3.1c2.3,2.3,3.5,5.3,3.6,8.4
		c31-2.4,59.6-13.5,83.3-30.8c-3.7-4.4-6-10-6-16.2C339.4,358.4,341.2,353.2,344.4,349z"/>
	<path id="XMLID_6_" class="st0" d="M99.4,245.7l14.7,0c0.6-1.9,1.6-3.8,3.1-5.3c4-4,10.1-4.7,14.8-2.1l35.9-35.8
		c-3.1-4.2-5-9.4-5-15c0-5.6,1.9-10.8,5-15l-18-18c-4.2,3.1-9.4,5-15,5c-6.2,0-11.9-2.3-16.2-6c-17.4,23.7-28.5,52.3-30.8,83.3
		c3,0.1,6,1.3,8.3,3.6C97.7,242,98.8,243.8,99.4,245.7z"/>
	<path id="XMLID_5_" class="st0" d="M288.5,301.2l-90.7-90.7c-0.2,0.1-0.4,0.2-0.6,0.3v77.2c9.2,3.7,15.7,12.7,15.7,23.2
		c0,5.6-1.9,10.8-5,15l35.8,35.8c3.7-2,8.2-2,11.9,0l35.8-35.9c-3.1-4.2-5-9.4-5-15C286.4,307.5,287.2,304.2,288.5,301.2z"/>
	<path id="XMLID_4_" class="st0" d="M286.4,187.5c0-5.6,1.9-10.8,5-15l-35.8-35.8c-3.7,2-8.2,2-11.9,0l-35.8,35.8
		c3.1,4.2,5,9.4,5,15c0,3.5-0.7,6.8-2,9.9l90.7,90.7c0.2-0.1,0.4-0.2,0.6-0.3v-77.2C292.9,207,286.4,198,286.4,187.5z"/>
	<path id="XMLID_3_" class="st0" d="M326.4,207.5c-1.7,1.3-3.7,2.4-5.7,3.2v77.2c2.1,0.8,4,1.9,5.7,3.2l35.8-35.9
		c-2-3.7-2-8.2,0-11.9L326.4,207.5z"/>
	<path id="XMLID_2_" class="st0" d="M137,243.3c2,3.7,2,8.2,0,11.9l35.9,35.8c1.7-1.3,3.7-2.4,5.7-3.2v-77.2c-2.1-0.8-4-1.9-5.7-3.2
		L137,243.3z"/>
	<path id="XMLID_1_" class="st0" d="M399.9,252.8h-14.7c-0.6,1.9-1.6,3.8-3.2,5.3c-4,4-10.1,4.7-14.9,2.1L331.3,296
		c3.1,4.2,5,9.4,5,15c0,5.6-1.9,10.8-5,15l18,18c4.2-3.1,9.4-5,15-5c6.2,0,11.9,2.3,16.2,6c17.4-23.7,28.5-52.3,30.8-83.3
		c-3-0.1-6-1.3-8.4-3.6C401.5,256.6,400.5,254.7,399.9,252.8z"/>
</g>
</svg>
