<?xml version="1.0" encoding="utf-8"?>
<!-- Generator: Adobe Illustrator 19.0.0, SVG Export Plug-In . SVG Version: 6.00 Build 0)  -->
<svg version="1.1" id="Layer_1" xmlns="http://www.w3.org/2000/svg" xmlns:xlink="http://www.w3.org/1999/xlink" x="0px" y="0px"
	 viewBox="0 0 335.986 235.19" enable-background="new 0 0 335.986 235.19" xml:space="preserve">
<g>
	<circle fill="#01BAEF" cx="62.772" cy="114.342" r="39.16"/>
</g>
<g>
	<circle fill="#01BAEF" cx="167.674" cy="114.342" r="51.439"/>
</g>
<g>
	<circle fill="#28A745" cx="105.272" cy="75.183" r="31.776"/>
</g>
<g>
	<circle fill="#20BF55" cx="130.641" cy="49.602" r="10.407"/>
</g>
<g>
	<circle fill="#0B4F6C" cx="123.976" cy="150.956" r="10.407"/>
</g>
<g>
	<circle fill="#0B4F6C" cx="145.044" cy="36.381" r="4.437"/>
</g>
<g>
	<circle fill="#01568B" stroke="#0B4F6C" stroke-miterlimit="10" cx="107.271" cy="165.653" r="4.436"/>
</g>
<g>
	<circle fill="#20BF55" cx="237.726" cy="163.97" r="6.683"/>
</g>
<g>
	<circle fill="#01568B" cx="244.098" cy="153.805" r="2.849"/>
</g>
<g>
	<circle fill="#20BF55" cx="282.098" cy="62.904" r="6.683"/>
</g>
<g>
	<circle fill="#01568B" cx="270.406" cy="65.586" r="2.849"/>
</g>
<g>
	<circle fill="#01568B" cx="24.211" cy="155.056" r="2.849"/>
</g>
<g>
	<circle fill="#01568B" cx="187.513" cy="51.667" r="2.849"/>
</g>
<g>
	<path fill="#0B4F6C" d="M290.033,36.448c-0.121-2.345,1.68-4.345,4.023-4.468c2.345-0.122,4.344,1.679,4.465,4.023
		c0.125,2.343-1.676,4.344-4.021,4.467C292.159,40.593,290.156,38.791,290.033,36.448z"/>
</g>
<g>
	<circle fill="#01568B" cx="49.601" cy="47.603" r="2.849"/>
</g>
<g>
	<circle fill="#01BAEF" cx="273.215" cy="114.342" r="39.159"/>
</g>
<g>
	<circle fill="#28A745" cx="230.715" cy="75.183" r="31.775"/>
</g>
<g>
	<g>
		<path fill="#40BDBD" d="M268.662,137.757l-7.438-7.446c-0.605-0.542-0.987-1.331-0.987-2.209V100.58
			c0-1.634,1.323-2.959,2.957-2.959h20.438c0.879,0,1.67,0.38,2.214,0.988l10.983,10.98c-2.207-10.916-11.848-19.134-23.412-19.134
			c-13.193,0-23.889,10.691-23.889,23.886C249.529,125.905,257.748,135.548,268.662,137.757z"/>
	</g>
	<g>
		<path fill="#40BDBD" d="M285.847,98.609c-0.544-0.608-1.335-0.988-2.214-0.988h-20.438c-1.634,0-2.957,1.325-2.957,2.959v27.521
			c0,0.878,0.382,1.667,0.987,2.209l7.438,7.446c1.537,0.307,3.125,0.47,4.756,0.47c13.188,0,23.883-10.694,23.883-23.885
			c0-1.627-0.16-3.218-0.471-4.752L285.847,98.609z"/>
	</g>
</g>
<g>
	<path fill="#2C3D50" d="M286.596,128.102c0,1.637-1.324,2.959-2.963,2.959h-20.438c-1.634,0-2.957-1.322-2.957-2.959V100.58
		c0-1.634,1.323-2.959,2.957-2.959h20.438c1.639,0,2.963,1.325,2.963,2.959V128.102z"/>
</g>
<g>
	<path fill="#F1C30F" d="M283.863,106.093c0,1.634-1.322,2.961-2.955,2.961h-14.897c-1.634,0-2.963-1.327-2.963-2.961v-2.7
		c0-1.633,1.329-2.955,2.963-2.955h14.897c1.633,0,2.955,1.322,2.955,2.955V106.093z"/>
</g>
<g>
	<path fill="#E67365" d="M271.262,123.893c0,1.932-1.564,3.499-3.498,3.499c-1.929,0-3.5-1.567-3.5-3.499
		c0-1.93,1.571-3.496,3.5-3.496C269.697,120.396,271.262,121.963,271.262,123.893z"/>
</g>
<g>
	<path fill="#ECF0F0" d="M269.594,123.274c0.344,0,0.621,0.28,0.621,0.618l0,0c0,0.347-0.277,0.623-0.621,0.623h-3.658
		c-0.342,0-0.625-0.276-0.625-0.623l0,0c0-0.338,0.283-0.618,0.625-0.618H269.594z"/>
</g>
<g>
	<path fill="#ECF0F0" d="M281.892,114.328h-1.831v-1.829c0-0.518-0.422-0.939-0.945-0.939c-0.512,0-0.935,0.422-0.935,0.939v1.829
		h-1.829c-0.526,0-0.938,0.42-0.938,0.938c0,0.515,0.411,0.938,0.938,0.938h1.829v1.83c0,0.519,0.423,0.94,0.935,0.94
		c0.523,0,0.945-0.422,0.945-0.94v-1.83h1.831c0.517,0,0.936-0.424,0.936-0.938C282.828,114.748,282.408,114.328,281.892,114.328z"
		/>
</g>
<g>
	<path fill="#ECF0F0" d="M269.543,116.046l-0.906-0.812l0.814-0.902c0.228-0.249,0.209-0.646-0.043-0.876
		c-0.262-0.226-0.648-0.204-0.881,0.048l-0.809,0.902l-0.898-0.813c-0.256-0.227-0.65-0.206-0.879,0.045
		c-0.229,0.259-0.205,0.651,0.047,0.875l0.902,0.812l-0.809,0.901c-0.23,0.259-0.211,0.648,0.041,0.876
		c0.258,0.232,0.648,0.21,0.88-0.045l0.804-0.901l0.906,0.81c0.252,0.232,0.643,0.209,0.875-0.043
		C269.818,116.667,269.793,116.275,269.543,116.046z"/>
</g>
<g>
	<g>
		<path fill="#ECF0F0" d="M280.982,124.084c0.344,0,0.618,0.28,0.618,0.622l0,0c0,0.342-0.274,0.622-0.618,0.622h-3.66
			c-0.345,0-0.622-0.28-0.622-0.622l0,0c0-0.342,0.277-0.622,0.622-0.622H280.982z"/>
	</g>
	<g>
		<path fill="#ECF0F0" d="M280.982,122.466c0.344,0,0.618,0.275,0.618,0.617l0,0c0,0.348-0.274,0.619-0.618,0.619h-3.66
			c-0.345,0-0.622-0.271-0.622-0.619l0,0c0-0.342,0.277-0.617,0.622-0.617H280.982z"/>
	</g>
</g>
<g>
	<g>
		<g>
			<circle fill="#40BDBD" cx="105.943" cy="74.488" r="22.244"/>
		</g>
	</g>
</g>
<g>
	<g>
		<path fill="#F1C30F" d="M224.461,96.536l-5.742-5.825c-0.163-0.076-0.277-0.241-0.277-0.43V63.534
			c0-0.264,0.213-0.476,0.475-0.476h2.508V62.43h1.489v-1.174h4.01c0.21-0.29,0.578-0.627,0.673-0.821
			c0.189-0.412,1.322-0.781,2.979-0.817v-0.005h0.009c0.048,0,0.089,0,0.136,0c0.041,0,0.088,0,0.131,0h0.012v0.005
			c1.635,0.036,2.762,0.4,2.971,0.804l0.857,0.835h3.828l1.171,1.174h0.323l0.619,0.629h1.887c0.191,0,0.357,0.115,0.432,0.279
			l9.938,9.991c-0.945-11.418-10.51-20.39-22.168-20.39c-12.29,0-22.246,9.96-22.246,22.246
			C208.473,85.3,215.221,93.834,224.461,96.536z"/>
	</g>
	<g>
		<path fill="#F1C30F" d="M242.949,63.338c-0.074-0.164-0.24-0.279-0.432-0.279h-1.887l-0.619-0.629h-0.323l-1.171-1.174h-3.828
			l-0.857-0.835c-0.209-0.403-1.336-0.768-2.971-0.804v-0.005h-0.008c-0.047,0-0.094,0-0.135,0c-0.047,0-0.088,0-0.136,0h-0.009
			v0.005c-1.656,0.036-2.789,0.405-2.979,0.817c-0.095,0.194-0.463,0.531-0.673,0.821h-4.01v1.174h-1.489v0.629h-2.508
			c-0.262,0-0.475,0.212-0.475,0.476v26.747c0,0.188,0.114,0.354,0.277,0.43l5.742,5.825c1.988,0.58,4.084,0.891,6.258,0.891
			c12.283,0,22.238-9.958,22.238-22.241c0-0.627-0.027-1.245-0.07-1.856L242.949,63.338z"/>
	</g>
</g>
<g>
	<g>
		<rect x="221.508" y="68.249" fill="#E67365" width="2.605" height="2.185"/>
	</g>
	<g>
		<rect x="221.508" y="72.301" fill="#E67365" width="2.605" height="2.187"/>
	</g>
	<g>
		<rect x="221.378" y="76.356" fill="#E67365" width="2.604" height="2.185"/>
	</g>
	<g>
		<rect x="221.508" y="80.414" fill="#E67365" width="2.605" height="2.185"/>
	</g>
	<g>
		<rect x="221.508" y="84.467" fill="#E67365" width="2.605" height="2.185"/>
	</g>
</g>
<g>
	<g>
		<rect x="226.266" y="68.249" fill="#C6CAD0" width="13.664" height="2.185"/>
	</g>
	<g>
		<rect x="226.266" y="72.301" fill="#C6CAD0" width="13.664" height="2.187"/>
	</g>
	<g>
		<rect x="226.143" y="76.356" fill="#C6CAD0" width="13.657" height="2.185"/>
	</g>
	<g>
		<rect x="226.266" y="80.414" fill="#C6CAD0" width="13.664" height="2.185"/>
	</g>
</g>
<g>
	<path fill="#ECF0F0" d="M242.518,63.059h-23.602c-0.262,0-0.475,0.192-0.475,0.432v24.3c0,0.239,0.213,0.431,0.475,0.431h23.602
		c0.264,0,0.473-0.191,0.473-0.431v-24.3C242.99,63.251,242.781,63.059,242.518,63.059z"/>
</g>
<g>
	<rect x="226.266" y="84.467" fill="#ECF0F0" width="13.664" height="2.185"/>
</g>
<g>
	<rect x="226.266" y="67.774" fill="#E67365" width="13.664" height="3.408"/>
</g>
<g>
	<rect x="226.266" y="74.098" fill="#F1C30F" width="13.664" height="3.412"/>
</g>
<g>
	<rect x="226.143" y="80.427" fill="#9B5AB6" width="13.657" height="3.41"/>
</g>
<g>
	<rect x="221.508" y="67.774" fill="#E67365" width="2.605" height="3.408"/>
</g>
<g>
	<rect x="221.508" y="74.098" fill="#F1C30F" width="2.605" height="3.412"/>
</g>
<g>
	<rect x="221.378" y="80.427" fill="#9B5AB6" width="2.604" height="3.41"/>
</g>
<g>
	<path fill="#2C3D50" d="M238.518,62.133v-1.288h-4.01c-0.014-0.021-0.032-0.044-0.047-0.065h-7.49
		c-0.016,0.021-0.033,0.044-0.048,0.065h-4.01v1.288h-1.489v3.355h18.588v-3.355H238.518z"/>
</g>
<g>
	<g>
		<path fill="#AAF28C" d="M85.891,115.342c0,13.188-10.692,23.885-23.886,23.885c-13.186,0-23.88-10.697-23.88-23.885
			c0-13.192,10.693-23.886,23.88-23.886C75.198,91.456,85.891,102.149,85.891,115.342z"/>
	</g>
</g>
<g>
	<path fill="#F1C30F" d="M75.773,110.44l-13.137,4.691l1.767-13.838c-1.493-0.189-3.044-0.145-4.599,0.179
		c-7.545,1.562-12.398,8.951-10.832,16.496c1.561,7.542,8.95,12.392,16.496,10.826c7.539-1.562,12.394-8.945,10.824-16.496
		C76.159,111.661,75.986,111.04,75.773,110.44z"/>
</g>
<g>
	<path fill="#ECF0F0" d="M76.497,105.351c-2.302-3.723-6.069-5.978-10.088-6.491l-1.774,13.829l13.136-4.689l0,0
		C77.445,107.085,77.021,106.201,76.497,105.351z"/>
</g>
<g>
	<g>
		<g>
			<path fill="#F1C30F" d="M206.256,114.593c0,21.171-17.176,38.338-38.344,38.338c-21.174,0-38.333-17.167-38.333-38.338
				c0-21.168,17.159-38.332,38.333-38.332C189.08,76.261,206.256,93.425,206.256,114.593z"/>
		</g>
	</g>
</g>
<g>
	<path fill="#E67365" d="M178.39,110.573c0,3.929-1.554,7.557-4.103,9.861c0.402,0.206,0.852,0.416,1.257,0.604
		c2.054,0.964,4.901,2.307,6.958,4.989h10.475c0-10.535-9.096-10.709-11.386-13.374l-0.273-1.452
		c2.896-1.511,4.932-5.072,4.932-9.229c0-5.521-3.594-10.001-8.023-10.001c-3.491,0-6.45,2.781-7.555,6.659
		C175.11,100.043,178.39,104.854,178.39,110.573z"/>
</g>
<g>
	<path fill="#2C3D50" d="M159.97,110.573c0,4.191,2.071,7.776,5.005,9.263l-0.238,1.276c-2.089,2.803-11.498,2.8-11.498,13.514
		h14.65h0.209v0.001h14.65c0-10.532-9.097-10.708-11.388-13.374l-0.273-1.451c2.896-1.512,4.931-5.071,4.931-9.229
		c0-5.523-3.594-10.002-8.022-10.002C163.563,100.571,159.97,105.051,159.97,110.573z"/>
</g>
<g>
	<path fill="#ECF0F0" d="M160.441,121.039c0.393-0.182,0.849-0.398,1.258-0.607c-2.551-2.3-4.101-5.922-4.101-9.858
		c0-5.72,3.28-10.533,7.72-11.944c-1.104-3.875-4.064-6.657-7.554-6.657c-4.431,0-8.024,4.478-8.024,10.001
		c0,4.192,2.07,7.775,5.006,9.265l-0.239,1.276c-2.089,2.803-11.498,2.8-11.498,13.515h10.476
		C155.537,123.344,158.389,122.003,160.441,121.039z"/>
</g>
<g>
	<g>
		<path fill="#F1C30F" d="M105.211,61.164h-0.002c-5.128,0.127-9.833,3.463-9.833,9.753c0,5.897,5.608,7.955,5.825,10.314h8.016
			c0.216-2.359,5.824-4.417,5.824-10.314C115.041,64.627,110.338,61.291,105.211,61.164z"/>
	</g>
	<g>
		<path fill="#ECF0F0" d="M105.211,88.221c2.382,0,4.317-2.051,4.317-4.582h-8.638C100.891,86.17,102.824,88.221,105.211,88.221z"/>
	</g>
</g>
</svg>
