<?xml version="1.0" encoding="utf-8"?>
<!-- Generator: Adobe Illustrator 19.0.0, SVG Export Plug-In . SVG Version: 6.00 Build 0)  -->
<svg version="1.1" id="Layer_1" xmlns="http://www.w3.org/2000/svg" xmlns:xlink="http://www.w3.org/1999/xlink" x="0px" y="0px"
	 viewBox="0 0 1400 980" enable-background="new 0 0 1400 980" xml:space="preserve">
<rect display="none" fill="#1C8FE5" width="1400" height="980"/>
<path fill="#25D69F" d="M891.436,31.806C723.507-42.835,747.498,228.415,583.469,206.825
	c-165.894-21.835-296.17,65.08-210.313,175.462c85.858,110.382-205.792,158.883-72.626,292.049s-138.95,155.246,72.626,286.891
	c165.673,0,391.237,0,546.541,0c144.754-24.117,173.935-96.258,79.161-167.016c-94.774-70.757,196.259-140.993,84.922-252.33
	c-111.337-111.337,137.135-210.296,17.797-264.211C962.547,214.86,974.384,68.675,891.436,31.806z"/>
<g>
	<g>
		<path fill="#FFC985" d="M850.324,371.862l-96.475,44.466c1.834,14.995,7.496,57.657,11.126,84.885l109.518-27.466
			C867.852,444.32,859.11,406.64,850.324,371.862z"/>
		<g>
			<circle fill="#FFB77B" cx="758.858" cy="305.775" r="163.947"/>
			<g>
				<path fill="#FFC985" d="M888.418,284.438c0-51.592-23.838-97.609-61.092-127.662c-20.837-9.591-44.025-14.948-68.467-14.948
					c-90.546,0-163.947,73.402-163.947,163.947c0,51.592,23.838,97.608,61.092,127.661c20.837,9.591,44.025,14.948,68.468,14.948
					C815.016,448.385,888.418,374.983,888.418,284.438z"/>
			</g>
			<g>
				<path fill="#FFB77B" d="M827.326,156.776c-5.126-2.359-10.396-4.46-15.79-6.29H706.15
					c-36.381,12.345-67.017,37.119-86.87,69.261c10.395,4.416,21.712,6.8,33.361,6.8h87.834c48.064,0,89.444,33.93,98.862,81.062
					l3.028,15.151l37.952,12.679c5.251-16.054,8.101-33.194,8.101-51.002C888.418,232.846,864.58,186.829,827.326,156.776z"/>
			</g>
			<path fill="#A55D2B" d="M641.808,185.017c-30.221,26.257-43.051,70.407-44.974,95.583
				c20.252-78.807,73.873-102.743,73.873-102.743L641.808,185.017z"/>
			<path fill="#934612" d="M842.365,305.775l-3.028-15.151c-9.418-47.132-50.798-81.062-98.862-81.062h-87.834
				c-29.568,0-57.029-15.302-72.587-40.446l-4.071-6.58c-17.777-28.731,2.889-65.818,36.675-65.818h0
				c11.578,0,22.669,4.655,30.779,12.918l0,0c14.983,15.266,35.475,23.866,56.865,23.866h151.732
				c10.838,0,20.882,5.687,26.458,14.98l6.027,10.045c3.835,6.392,9.854,11.179,16.945,13.477l0,0
				c12.724,4.124,21.342,15.976,21.342,29.352V332.65L842.365,305.775z"/>
			<g>
				<path fill="#A55D2B" d="M901.464,172.004L901.464,172.004c-7.091-2.298-13.11-7.086-16.945-13.477l-6.027-10.045
					c-5.576-9.294-15.62-14.98-26.458-14.98H700.302c-21.39,0-41.882-8.6-56.865-23.866v0c-8.11-8.263-19.201-12.918-30.779-12.918
					h0c-23.362,0-40.44,17.734-42.884,38.175c0.706,5.981,2.696,11.986,6.21,17.665l4.071,6.58
					c15.557,25.144,43.019,40.446,72.587,40.446h87.834c48.064,0,89.444,33.93,98.862,81.062l3.028,15.151l80.441,26.875V201.356
					C922.805,187.98,914.188,176.128,901.464,172.004z"/>
			</g>
			<g>
				<path fill="#4B4B56" d="M884.644,272.09c-5.467,0-9.899-4.432-9.899-9.899c0-24.62-4.086-59.626-23.552-86.588
					c-20.17-27.937-53.262-42.102-98.354-42.102c-5.467,0-9.899-4.432-9.899-9.899c0-5.467,4.432-9.899,9.899-9.899
					c51.811,0,90.302,16.927,114.406,50.311c22.563,31.25,27.299,70.638,27.299,98.177
					C894.543,267.658,890.111,272.09,884.644,272.09z"/>
			</g>
			<g>
				<path fill="#4B4B56" d="M792.732,431.055l-2.222-11.432c50.643-9.846,75.175-71.943,77.929-92.235l11.54,1.566
					C876.81,352.302,850.245,419.873,792.732,431.055z"/>
			</g>
			<g>
				<ellipse fill="#3F3F4C" cx="881.912" cy="298.935" rx="58.772" ry="69.707"/>
				<ellipse fill="#CECEDD" cx="895.461" cy="298.935" rx="43.413" ry="51.49"/>
				<ellipse fill="#4B4B56" cx="898.305" cy="298.935" rx="40.569" ry="48.117"/>
				<path fill="#5A5A66" d="M898.305,250.818c-22.406,0-40.569,21.543-40.569,48.117c0,10.353,2.766,19.933,7.456,27.783
					l68.918-50.41C927.283,261.142,913.812,250.818,898.305,250.818z"/>
			</g>
			<path fill="#F48F73" d="M667.985,310.012c-3.933,7.527-10.195,19.485-7.977,28.558c0.859,4.161,4.176,7.751,7.17,10.7
				c3.377,3.29,8.075,7.021,11.189,10.888l0.006,0.008c1.72,2.136-9.104,1.755-16.871-4.263c-5.17-3.97-8.304-9.852-8.699-16.367
				c-0.78-10.985,6.706-22.167,14.235-30.204c0.222-0.237,0.594-0.249,0.83-0.027C668.065,309.491,668.104,309.784,667.985,310.012z
				"/>
			<path fill="#F95D5D" d="M661.017,384.404c51.559,0,85.644-24.442,85.644-24.442c-4.08,41.766,31.431,63.304-2.919,74.95
				C709.393,446.557,682.809,392.418,661.017,384.404z"/>
			<path fill="#FF8585" d="M730.64,436.344c4.239,0.48,8.604,0.092,13.102-1.433c26.947-9.137,10.9-24.363,4.703-50.667
				C722.193,392.471,719.568,415.983,730.64,436.344z"/>
			<g>
				<path fill="#5A5A66" d="M796.51,424.512l-38.261,6.472l-0.442-2.616c-0.729-4.312,2.175-8.399,6.487-9.128l22.645-3.831
					c4.312-0.729,8.399,2.175,9.129,6.487L796.51,424.512z"/>
				<path fill="#4B4B56" d="M796.51,424.512l-38.261,6.472l0.442,2.616c0.729,4.312,4.816,7.217,9.128,6.487l22.645-3.831
					c4.312-0.729,7.217-4.817,6.488-9.129L796.51,424.512z"/>
			</g>
		</g>
		<path fill="#0E2335" d="M755.752,515.924C728.693,601.312,617.435,654.86,591.804,654.86c0,34.574,0,53.931,0,53.931
			c29.695,0,135.57-18.646,169.742-90.639C795.719,546.16,755.752,515.924,755.752,515.924z"/>
		<path fill="#1A334C" d="M876.872,496.579c79.038,0,207.431,212.212,97.194,212.212c-110.236,0-259.38,0-259.38,0
			c-7.857-92.207,16.141-182.396,46.719-200.05C791.983,491.087,876.872,496.579,876.872,496.579z"/>
		<path fill="#0E2335" d="M878.805,664.439c53.181-2.782,59.678-0.115,62.383-2.876c3.183-3.115,2.212-12.5,1.464-16.907
			c-6.972-39.557-40.771-76.852-39.847-75.469c-3.01-3.277,1.692-7.959,4.962-4.918c11.166,10.441,20.375,22.73,28.009,35.877
			c14.686,25.34,30.424,70.731,2.309,72.86c-0.117,0.002-0.95,0.016-0.833,0.014c-3.61-0.068-30.219-0.116-58.447-1.593
			c-1.93-0.101-3.412-1.747-3.311-3.677C875.588,665.949,877.045,664.538,878.805,664.439z"/>
		<path fill="#FFFFFF" d="M878.929,452.036c-59.752,15.755-100.333,21.406-125.123,24.31c-20.37,2.386-19.144,29.769-7.645,37.711
			c11.499,7.942,134.617-9.805,143.935-18.207C899.414,487.447,890.292,449.04,878.929,452.036z"/>
		<path fill="#FC5454" d="M767.951,505.079c-7.829,23.343-24.925,138.478-24.925,155.455c0,16.977,17.583,42.442,35.268,42.442
			s29.002-29.002,32.539-43.15c3.537-14.147-33.777-152.761-33.777-152.761L767.951,505.079z"/>
		<path fill="#FC5454" d="M751.546,485.649c-1.445,4.335,2.817,31.293,21.647,32.994c18.83,1.701,23.592-34.014,23.592-37.416
			C796.785,477.826,753.927,478.506,751.546,485.649z"/>
		<g>
			<path fill="#FFC985" d="M905.297,708.791c0-37.709-15.084-57.434-31.908-52.213c-10.443-25.526-30.748-9.862-30.748-9.862
				c-6.382-20.885-30.02-13.163-39.45-4.756c0-20.77-43.511-20.19-53.373,4.176c-9.862,24.366,9.572,33.938,19.145,24.366
				c9.572-9.572,21.675-15.455,21.675-15.455c-15.787,12.886,6.367,26.659,13.714,22.416c0,9.282,4.061,15.954-6.672,15.954
				c-10.733,0-24.075-22.702-34.479-12.588c-10.404,10.114-8.987,27.962,5.762,27.962S905.297,708.791,905.297,708.791z"/>
			<g>
				<path fill="#FFA87D" d="M823.161,675.987c0.34,2.728,1.839,5.029,4.458,6.84c3.014,2.084,11.062,4.946,27.218-5.337
					c-2.747,5.08-2.285,8.643-0.98,11.007c2.051,3.718,6.662,5.317,11.259,5.317c1.744,0,3.485-0.23,5.084-0.662
					c4.143-1.12,7.818-3.128,10.77-4.74c2.849-1.557,5.54-3.015,6.789-2.62c0.138,0.044,0.556,0.18,1.01,1.132
					c0.415,0.871,1.456,1.237,2.329,0.823c0.87-0.415,1.24-1.458,0.823-2.329c-0.731-1.531-1.77-2.524-3.088-2.95
					c-2.682-0.866-5.707,0.785-9.539,2.879c-2.935,1.604-6.263,3.422-10.007,4.433c-4.491,1.215-10.5,0.424-12.372-2.968
					c-2.123-3.851,1.494-10.512,9.928-18.277c0.699-0.644,0.756-1.728,0.127-2.441c-0.629-0.712-1.711-0.792-2.436-0.18
					c-18.345,15.47-30.072,17.399-34.93,14.039c-1.789-1.236-2.763-2.674-2.976-4.396c-0.338-2.714,1.117-6.364,4.424-11.066
					c1.858-2.069,3.601-4.317,5.458-6.848c0.554-0.754,0.415-1.811-0.315-2.396c-0.731-0.587-1.792-0.492-2.408,0.213
					c-2.189,2.503-4.025,4.796-5.523,6.91c-5.357,5.903-11.742,10.165-25.493,15.691c0.577-0.129,1.109-0.324,1.579-0.596
					c0,1.271,0.077,2.492,0.181,3.655c8.669-3.514,14.548-6.604,19.086-9.901C823.125,672.938,822.979,674.515,823.161,675.987z"/>
			</g>
		</g>
		<g>
			<path fill="#3F3F4C" d="M348.696,394.329h257.551l81.216,295.105H411.001l-76.199-276.873
				C332.278,403.388,339.181,394.329,348.696,394.329z"/>
			<path fill="#4B4B56" d="M331.221,394.329h257.551l81.216,295.105H404.093c-6.241,0-11.713-4.169-13.369-10.187l-73.395-266.686
				C314.804,403.388,321.706,394.329,331.221,394.329z"/>
			<path fill="#4B4B56" d="M682.286,708.791H420.994c-3.575,0-6.473-2.898-6.473-6.473v-12.884h267.765V708.791z"/>
			<path fill="#3F3F4C" d="M682.286,708.791h178.073c3.56,0,6.445-2.886,6.445-6.445l0,0c0-3.374-2.602-6.176-5.966-6.427
				l-180.339-13.453L682.286,708.791z"/>
			
				<ellipse transform="matrix(-0.9575 0.2884 -0.2884 -0.9575 1094.7604 922.4682)" fill="#EAEAF4" cx="479.424" cy="541.882" rx="18.984" ry="28.117"/>
		</g>
	</g>
	<g>
		<rect x="599.183" y="724.167" fill="#3D8BFC" width="452.605" height="237.061"/>
		<polygon fill="#4D9EFF" points="1051.788,961.228 599.183,961.228 599.183,786.755 1051.788,834.288 		"/>
		<rect x="309.671" y="724.167" fill="#4D9EFF" width="384" height="237.061"/>
		<polygon fill="#5AC0FF" points="309.671,745.935 309.671,961.228 693.672,961.228 693.672,781.797 		"/>
		<path fill="#4D9EFF" d="M1082.358,739.543H697.891v-30.751h384.467c6.781,0,12.279,5.497,12.279,12.279v6.194
			C1094.637,734.045,1089.139,739.543,1082.358,739.543z"/>
		<g>
			<path fill="#5AC0FF" d="M720.168,739.543h-442.76c-6.781,0-12.279-5.497-12.279-12.279v-6.194
				c0-6.781,5.497-12.279,12.279-12.279h442.76c6.781,0,12.279,5.497,12.279,12.279v6.194
				C732.447,734.045,726.949,739.543,720.168,739.543z"/>
		</g>
	</g>
</g>
</svg>
